<svg id="visual" viewBox="0 0 1400 800" width="1400" height="800" xmlns="http://www.w3.org/2000/svg" xmlns:xlink="http://www.w3.org/1999/xlink" version="1.1"><rect x="0" y="0" width="1400" height="800" fill="#9cbeda"></rect><defs><linearGradient id="grad1_0" x1="42.9%" y1="100%" x2="100%" y2="0%"><stop offset="15%" stop-color="#0a506f" stop-opacity="1"></stop><stop offset="85%" stop-color="#0a506f" stop-opacity="1"></stop></linearGradient></defs><defs><linearGradient id="grad1_1" x1="42.9%" y1="100%" x2="100%" y2="0%"><stop offset="15%" stop-color="#0a506f" stop-opacity="1"></stop><stop offset="85%" stop-color="#5a85a3" stop-opacity="1"></stop></linearGradient></defs><defs><linearGradient id="grad1_2" x1="42.9%" y1="100%" x2="100%" y2="0%"><stop offset="15%" stop-color="#9cbeda" stop-opacity="1"></stop><stop offset="85%" stop-color="#5a85a3" stop-opacity="1"></stop></linearGradient></defs><defs><linearGradient id="grad2_0" x1="0%" y1="100%" x2="57.1%" y2="0%"><stop offset="15%" stop-color="#0a506f" stop-opacity="1"></stop><stop offset="85%" stop-color="#0a506f" stop-opacity="1"></stop></linearGradient></defs><defs><linearGradient id="grad2_1" x1="0%" y1="100%" x2="57.1%" y2="0%"><stop offset="15%" stop-color="#5a85a3" stop-opacity="1"></stop><stop offset="85%" stop-color="#0a506f" stop-opacity="1"></stop></linearGradient></defs><defs><linearGradient id="grad2_2" x1="0%" y1="100%" x2="57.1%" y2="0%"><stop offset="15%" stop-color="#5a85a3" stop-opacity="1"></stop><stop offset="85%" stop-color="#9cbeda" stop-opacity="1"></stop></linearGradient></defs><g transform="translate(1400, 800)"><path d="M-720 0C-653.7 -68.3 -587.4 -136.7 -564.5 -233.8C-541.6 -331 -562 -456.9 -509.1 -509.1C-456.3 -561.3 -330.1 -539.8 -233.1 -562.6C-136 -585.5 -68 -652.7 0 -720L0 0Z" fill="#7ba1be"></path><path d="M-480 0C-435.8 -45.6 -391.6 -91.1 -376.3 -155.9C-361 -220.6 -374.7 -304.6 -339.4 -339.4C-304.2 -374.2 -220.1 -359.9 -155.4 -375.1C-90.7 -390.3 -45.3 -435.2 0 -480L0 0Z" fill="#386a89"></path><path d="M-240 0C-217.9 -22.8 -195.8 -45.6 -188.2 -77.9C-180.5 -110.3 -187.3 -152.3 -169.7 -169.7C-152.1 -187.1 -110 -179.9 -77.7 -187.5C-45.3 -195.2 -22.7 -217.6 0 -240L0 0Z" fill="#0a506f"></path></g><g transform="translate(0, 0)"><path d="M720 0C684.4 89.6 648.8 179.2 601.4 249.1C554 319.1 494.8 369.3 443.4 443.4C391.9 517.4 348.1 615.1 275.5 665.2C202.9 715.3 101.5 717.6 0 720L0 0Z" fill="#7ba1be"></path><path d="M480 0C456.3 59.7 432.6 119.5 401 166.1C369.4 212.7 329.9 246.2 295.6 295.6C261.3 344.9 232.1 410.1 183.7 443.5C135.3 476.8 67.6 478.4 0 480L0 0Z" fill="#386a89"></path><path d="M240 0C228.1 29.9 216.3 59.7 200.5 83C184.7 106.4 164.9 123.1 147.8 147.8C130.6 172.5 116 205 91.8 221.7C67.6 238.4 33.8 239.2 0 240L0 0Z" fill="#0a506f"></path></g></svg>